Coordinates
version=1
nRows=14
nColumns=36
inDegrees=yes

Units are S.I. units (second, meters, Newtons, ...)
If the header above contains a line with 'inDegrees', this indicates whether rotational values are in degrees (yes) or radians (no).

endheader
time	pelvis_tilt	pelvis_list	pelvis_rotation	pelvis_tx	pelvis_ty	pelvis_tz	hip_flexion_r	hip_adduction_r	hip_rotation_r	knee_angle_r	knee_angle_r_beta	ankle_angle_r	subtalar_angle_r	mtp_angle_r	hip_flexion_l	hip_adduction_l	hip_rotation_l	knee_angle_l	knee_angle_l_beta	ankle_angle_l	subtalar_angle_l	mtp_angle_l	lumbar_extension	lumbar_bending	lumbar_rotation	arm_flex_r	arm_add_r	arm_rot_r	elbow_flex_r	pro_sup_r	arm_flex_l	arm_add_l	arm_rot_l	elbow_flex_l	pro_sup_l
     14.88333330	     -2.50769445	      2.88282004	    179.93781922	      0.44787167	      1.06460869	      0.68653960	     10.69314475	      4.90670049	      2.85892152	     17.46538793	      0.30482852	     -5.02928532	     -8.04613243	     -7.49999987	     12.30019518	     -7.42161994	     -0.78865073	     69.83285025	      1.21881316	     -1.10350618	     -9.80963364	     -7.49999987	    -16.03890183	      1.92252109	      3.90134291	      9.26857359	    -13.44075023	      6.68430663	     22.00798848	    101.77133897	     17.71479018	    -12.04751488	     -0.09111642	     27.01312672	    101.67365124
     14.90000000	     -2.69363929	      2.53340549	    179.74331333	      0.45147494	      1.06602432	      0.68462250	      9.63382672	      4.75033200	      2.73438788	     17.78939118	      0.31048345	     -5.70919866	     -9.09291518	     -7.49999987	     14.64077506	     -7.37098606	     -1.01045483	     72.49813573	      1.26533117	     -0.31202685	    -10.27396508	     -7.49999987	    -16.35100524	      1.71109556	      4.31772251	     10.07817889	    -13.81760868	      6.68447414	     22.33730982	    101.88089979	     16.77131301	    -11.77778148	     -0.18616798	     25.89780935	    101.88185380
     14.91666670	     -2.98606696	      2.05886086	    179.41260874	      0.45503585	      1.06976079	      0.68146145	      8.58479994	      4.47373646	      2.45972326	     17.92883251	      0.31291716	     -5.83748324	     -9.31979175	     -7.49999987	     16.47573873	     -7.17511029	     -1.42699416	     74.11714052	      1.29358813	     -0.12305798	    -10.56867593	     -7.49999987	    -16.92707143	      1.18047420	      4.92884943	     11.00260003	    -14.18951708	      6.61535772	     22.70150281	    101.75242649	     15.91387303	    -11.62407696	     -0.16691073	     25.40126285	    101.79960333
     14.93333330	     -3.12153224	      2.04759966	    179.34396619	      0.45922638	      1.07398245	      0.67936083	      7.71824979	      4.66176720	      2.03446594	     18.29412316	      0.31929268	     -6.02212346	    -10.52583398	     -7.49999987	     18.40142827	     -7.33354840	     -1.53279572	     74.97142733	      1.30849825	     -0.28925088	    -10.78207963	     -7.49999987	    -17.12137899	      1.32911141	      5.03991059	     12.51661197	    -14.59586291	      7.14985015	     22.69822227	    102.50498351	     15.72475949	    -11.30858276	     -0.36895499	     22.61620095	    102.86570353
     14.95000000	     -3.43831487	      2.01531323	    179.26247998	      0.46144573	      1.07871594	      0.67922422	      6.47190459	      4.65178687	      1.29008900	     18.96309100	      0.33096837	     -5.38872247	    -11.17252895	     -7.49999987	     19.74065664	     -7.31726864	     -1.89468723	     74.49296553	      1.30014752	     -0.67944176	    -11.16784299	     -7.49999987	    -17.68068048	      1.39096371	      5.31646273	     13.87689485	    -15.14943193	      7.70568913	     23.23262783	    102.07553956	     15.33317226	    -11.09537352	      0.21267129	     21.11409759	    102.99918819
     14.96666670	     -3.66857938	      2.04724309	    179.24146141	      0.45952869	      1.08336962	      0.68134043	      5.13944129	      4.59711656	      0.58686879	     19.59109234	      0.34192907	     -4.40716634	    -11.93631079	     -7.49999987	     20.77659841	     -7.26851485	     -2.40308079	     72.77796413	      1.27021510	     -0.91955333	    -11.36373891	     -7.49999987	    -18.05546714	      1.58401891	      5.56175608	     15.08551696	    -15.65848145	      8.15118427	     23.71313437	    101.48672631	     15.06777671	    -10.76375547	      1.24047941	     19.27746523	    102.99344264
     14.98333330	     -3.91088717	      2.02585560	    179.26473918	      0.45576620	      1.08826442	      0.68425537	      3.52918899	      4.47556797	      0.19471633	     19.53108878	      0.34088181	     -3.50863733	    -12.63593815	     -7.49999987	     21.40707437	     -7.06429554	     -2.93715495	     69.99013662	      1.22155833	     -1.10917861	    -11.39380031	     -7.49999987	    -18.40869513	      1.71337884	      5.70861700	     15.86844401	    -16.15637011	      8.44085230	     24.48792509	    101.13214317	     14.69804037	    -10.41709901	      2.22345957	     17.83709538	    103.24025073
     15.00000000	     -4.04142180	      1.99433525	    179.21197492	      0.45388766	      1.09267163	      0.68552509	      1.89734186	      4.41142767	      0.20302426	     18.68550683	      0.32612362	     -2.80036348	    -12.95668773	     -7.49999987	     21.85929812	     -6.86287926	     -3.39637058	     66.57991867	      1.16203880	     -1.43057982	    -11.28947976	     -7.49999987	    -18.56530553	      1.78396713	      5.95155420	     16.24410038	    -16.66672882	      8.55389566	     25.32551945	    100.73562975	     14.33966958	    -10.02114186	      3.59246785	     16.48246618	    103.45161635
     15.01666670	     -4.00737319	      1.98250369	    179.09449774	      0.45397959	      1.09500311	      0.68515336	      0.50920614	      4.45223389	      0.47884080	     17.42176009	      0.30406708	     -2.23706958	    -12.95468873	     -7.49999987	     22.26976094	     -6.77296781	     -3.71741939	     62.98013640	      1.09921074	     -1.85275673	    -11.06435016	     -7.49999987	    -18.48173471	      1.81007297	      6.21912569	     16.43530988	    -17.11881005	      8.68084324	     26.05320763	    100.52388189	     13.85861829	     -9.59040363	      4.82032279	     15.34102935	    103.76552435
     15.03333330	     -3.98168690	      1.98439190	    178.94932786	      0.45376969	      1.09583298	      0.68501041	     -0.73224243	      4.57281814	      0.96265927	     16.09071494	      0.28083595	     -1.99200338	    -13.02825620	     -7.49999987	     22.43630566	     -6.75722206	     -3.94407431	     59.19166023	      1.03308936	     -2.29801543	    -10.95658616	     -7.49999987	    -18.41084949	      1.81874067	      6.55782599	     16.43050439	    -17.65840263	      9.05356239	     27.11030537	     99.57231154	     13.21899635	     -9.16855422	      6.57588984	     14.61385480	    103.44616709
     15.05000000	     -3.95278944	      1.99999971	    178.80465778	      0.45293031	      1.09558614	      0.68544247	     -1.81805039	      4.71556045	      1.42614828	     14.98327965	      0.26150756	     -1.79001337	    -12.88007053	     -7.49999987	     22.30524193	     -6.78255019	     -4.21674174	     54.92582742	      0.95863653	     -2.87848691	    -11.01965439	     -7.49999987	    -18.21845502	      1.85078575	      6.88616114	     16.45694641	    -18.13924566	      9.51725011	     27.92885314	     98.65898371	     12.42589143	     -8.65687719	      7.96880637	     14.01313174	    103.00890429
     15.06666670	     -3.94501590	      2.04952135	    178.86762896	      0.45237840	      1.09436397	      0.68584041	     -2.92637676	      4.90604398	      1.69234295	     13.98538222	      0.24409097	     -1.64903977	    -12.68534304	     -7.49999987	     21.91798859	     -6.78481057	     -4.45330274	     50.00554049	      0.87276133	     -3.61041075	    -11.12653364	     -7.49999987	    -17.94283744	      1.99613968	      6.95006380	     16.45826014	    -18.52835420	      9.87409957	     28.86851072	     98.05741268	     11.57422233	     -8.15726211	      9.18811629	     13.37385830	    102.89771579
     15.08333330	     -3.84492623	      2.11960389	    178.92241711	      0.45229858	      1.09126537	      0.68580996	     -3.84782151	      5.10050825	      1.97103585	     13.31788655	      0.23244097	     -1.31772219	    -12.52525571	     -7.49999987	     21.36916576	     -6.81215149	     -4.82333784	     44.50268416	      0.77671836	     -4.62794449	    -11.32224672	     -7.49999987	    -17.44873014	      2.14240686	      6.94462066	     16.48642495	    -18.73225752	     10.01633951	     29.47038163	     98.16230407	     10.61866988	     -7.65723866	      9.38460917	     12.80313928	    103.16522963
     15.10000000	     -4.00220159	      2.30656296	    179.07516105	      0.45304828	      1.08825955	      0.68640396	     -5.07718515	      5.34472859	      1.98604591	     12.70434766	      0.22173270	     -0.75786838	    -11.95195528	     -7.49999987	     20.43002174	     -6.84447685	     -5.02684126	     38.72059192	      0.67580182	     -5.88781246	    -11.82963111	     -7.49999987	    -17.36480336	      2.41164036	      7.13146021	     16.11597141	    -19.40411335	     10.75696739	     31.02542352	     96.61870631	      9.93259228	     -7.25081729	     11.03826410	     12.34256281	    102.38200224
